<svg xmlns="http://www.w3.org/2000/svg" width="81" height="80" viewBox="0 0 81 80" fill="none">
    <g clip-path="url(#clip0_357_67211)">
      <path fill-rule="evenodd" clip-rule="evenodd" d="M40.5006 9.53906C62.1433 9.53906 79.6871 27.1896 79.6871 48.9638C79.6871 59.9809 75.1939 69.9409 67.9509 77.0945H13.0487C5.80744 69.9426 1.3125 59.9826 1.3125 48.9654C1.3125 27.1912 18.858 9.53906 40.5006 9.53906Z" fill="#F4F3F4"/>
      <path fill-rule="evenodd" clip-rule="evenodd" d="M40.5008 79.9993C62.8081 79.9993 81.0017 78.6953 81.0017 77.0962C81.0017 75.4971 62.8081 74.1914 40.5008 74.1914C18.1936 74.1914 0 75.4971 0 77.0962C0 78.6953 18.1936 79.9993 40.5008 79.9993Z" fill="#EBD3FF"/>
      <path fill-rule="evenodd" clip-rule="evenodd" d="M21.7505 12.5932L27.3145 17.629L37.9286 15.3429L42.0689 22.4565L51.6554 24.2574L48.6356 11.7611L24.9692 10.4805L21.7505 12.5932Z" fill="#7A7031"/>
      <path fill-rule="evenodd" clip-rule="evenodd" d="M43.3865 22.9174L43.529 22.9557L42.571 18.752L51.3769 20.6879L46.9052 23.8578L54.3503 25.8505L48.4781 31.1615L56.3326 32.5972L50.6427 39.0071L58.0812 40.0493L52.9498 46.3274L41.3462 38.9354C41.4373 38.4785 41.56 38.1533 41.6379 37.7031L43.3865 22.919V22.9174Z" fill="#42B75D"/>
      <path fill-rule="evenodd" clip-rule="evenodd" d="M55.8305 49.9358L53.8449 46.3223C49.7096 38.8002 47.303 30.5811 46.7743 22.1752C45.9456 8.01649 29.0233 10.9296 26.272 20.0042L24.8035 22.1269C22.5958 25.3185 21.9477 29.2088 23.0151 32.8572C24.0842 36.5057 26.7708 39.5789 30.4255 41.3315L28.7332 63.2741L55.8305 49.9358Z" fill="#815DE5"/>
      <path fill-rule="evenodd" clip-rule="evenodd" d="M30.4252 41.3331L30.0142 46.6541L30.7567 47.3911C36.7698 48.8552 42.8658 45.3134 44.6111 39.3438L45.0404 37.873C41.452 41.4865 36.2179 42.8972 31.3152 41.5732L30.4235 41.3331H30.4252Z" fill="#452877"/>
      <path fill-rule="evenodd" clip-rule="evenodd" d="M58.7838 43.4058C59.813 46.6041 60.3848 50.0575 60.3848 53.5759C60.3848 67.4762 51.4828 77.0977 40.4991 77.0977C29.5153 77.0977 20.6133 67.4762 20.6133 53.5759C20.6133 50.6094 21.0194 47.6896 21.7652 44.9283L23.3845 45.7987L29.565 42.7488L36.271 47.031L38.545 45.3885L42.5095 47.0893L49.2735 41.75L55.4557 45.9738L58.7821 43.4058H58.7838Z" fill="#C7C6C7"/>
      <path fill-rule="evenodd" clip-rule="evenodd" d="M40.5242 46.2353L42.5114 47.0874L43.3584 46.4204C43.7197 46.7989 43.9401 47.3142 43.9401 47.8811C43.9401 49.0467 43.0004 49.9938 41.8402 49.9938C40.68 49.9938 39.7402 49.0484 39.7402 47.8811C39.7402 47.2158 40.0452 46.6238 40.5225 46.237L40.5242 46.2353ZM50.4091 42.5234L55.4576 45.9735L58.784 43.4055C59.1188 44.4461 59.4056 45.5149 59.6393 46.6038C58.6813 47.7894 57.2194 48.5465 55.5819 48.5465C52.6947 48.5465 50.3527 46.1919 50.3527 43.2855C50.3527 43.027 50.3709 42.7736 50.4074 42.5251L50.4091 42.5234ZM60.3503 55.038C60.2227 57.8228 59.7304 60.4207 58.9349 62.7836C57.4017 62.2333 56.3029 60.7576 56.3029 59.025C56.3029 56.8223 58.078 55.0364 60.2674 55.0364C60.2956 55.0364 60.3221 55.0364 60.3503 55.0364V55.038ZM55.9382 68.7766C53.9294 71.6513 51.3405 73.8825 48.3771 75.3082C46.2589 74.4861 44.7556 72.4184 44.7556 69.9972C44.7556 66.8539 47.2881 64.306 50.4124 64.306C53.1206 64.306 55.383 66.2203 55.9382 68.7766ZM24.7173 68.2696C23.6417 66.6355 22.75 64.8046 22.0737 62.8086C22.7036 61.7681 23.8405 61.0744 25.14 61.0744C27.1222 61.0744 28.7283 62.6902 28.7283 64.6845C28.7283 66.6789 27.1222 68.2947 25.14 68.2947C24.9974 68.2947 24.8549 68.2863 24.7173 68.2696ZM38.1077 68.8816C39.654 68.8816 40.907 70.1422 40.907 71.698C40.907 73.2538 39.654 74.5144 38.1077 74.5144C36.5613 74.5144 35.3083 73.2538 35.3083 71.698C35.3083 70.1422 36.5613 68.8816 38.1077 68.8816ZM34.9005 56.5605C37.4447 56.5605 39.5082 58.6365 39.5082 61.1961C39.5082 63.7557 37.4463 65.8301 34.9005 65.8301C32.3547 65.8301 30.2946 63.7541 30.2946 61.1961C30.2946 58.6382 32.3581 56.5605 34.9005 56.5605ZM29.7692 44.3577C32.3133 44.3577 34.3768 46.4321 34.3768 48.9917C34.3768 51.5513 32.3133 53.6257 29.7692 53.6257C27.225 53.6257 25.1632 51.5513 25.1632 48.9917C25.1632 46.4321 27.2267 44.3577 29.7692 44.3577ZM48.7798 51.633C51.5825 51.633 53.8532 53.9175 53.8532 56.7372C53.8532 59.557 51.5809 61.8414 48.7798 61.8414C45.9788 61.8414 43.7064 59.557 43.7064 56.7372C43.7064 53.9175 45.9788 51.633 48.7798 51.633Z" fill="#737274"/>
      <path fill-rule="evenodd" clip-rule="evenodd" d="M26.9282 35.9219C29.8818 39.6388 34.0866 40.7643 38.2103 36.779C34.4165 36.9308 30.7221 35.7702 26.9282 35.9219Z" fill="white"/>
      <path fill-rule="evenodd" clip-rule="evenodd" d="M34.1431 21.1855C35.4408 16.6382 40.2126 17.2852 40.8788 24.2654C38.6927 22.4028 36.485 20.8503 34.1431 21.1855Z" fill="white"/>
      <path fill-rule="evenodd" clip-rule="evenodd" d="M30.2366 20.6865C30.5581 15.604 27.9245 17.2231 25.8345 21.3619C27.4322 20.2213 29.4908 19.9428 30.2366 20.6865Z" fill="white"/>
      <path fill-rule="evenodd" clip-rule="evenodd" d="M27.2448 20.6105C27.9906 20.3304 28.7298 20.2203 29.3165 20.297C29.3165 20.2703 29.3165 20.2453 29.3165 20.2186C29.3165 19.4249 28.8442 18.7812 28.2591 18.7812C27.674 18.7812 27.2017 19.4249 27.2017 20.2186C27.2017 20.3554 27.2149 20.4871 27.2414 20.6122L27.2448 20.6105Z" fill="#323033"/>
      <path fill-rule="evenodd" clip-rule="evenodd" d="M28.7349 19.9191C29.0366 19.9191 29.2819 19.5856 29.2819 19.1753C29.2819 18.7651 29.0366 18.4316 28.7349 18.4316C28.4333 18.4316 28.188 18.7651 28.188 19.1753C28.188 19.5856 28.4333 19.9191 28.7349 19.9191Z" fill="white"/>
      <path fill-rule="evenodd" clip-rule="evenodd" d="M36.7585 19.4707C37.4613 19.4707 38.0298 20.2444 38.0298 21.1999C38.0298 21.5134 37.9685 21.8069 37.8607 22.0603C37.0801 21.6218 36.2912 21.3116 35.4873 21.1932C35.489 20.2411 36.0575 19.4707 36.7585 19.4707Z" fill="#323033"/>
      <path d="M37.4825 20.9464C37.7846 20.9464 38.0294 20.6134 38.0294 20.2027C38.0294 19.792 37.7846 19.459 37.4825 19.459C37.1804 19.459 36.9355 19.792 36.9355 20.2027C36.9355 20.6134 37.1804 20.9464 37.4825 20.9464Z" fill="white"/>
      <path fill-rule="evenodd" clip-rule="evenodd" d="M44.4869 0.942301C52.1508 3.88377 56.1784 13.1417 55.6729 23.0517L51.6553 24.259L47.3758 18.0959L39.1649 20.6588L36.0622 17.6473L33.3556 18.366L28.6071 11.9595L21.7504 12.5931L20.5454 11.2008C26.716 2.67483 36.4153 -2.15591 44.4869 0.942301Z" fill="#C7C6C7"/>
      <path fill-rule="evenodd" clip-rule="evenodd" d="M47.1221 2.2884C48.695 3.31057 50.0674 4.63624 51.2242 6.19535C50.4618 6.78898 49.421 6.97907 48.4547 6.60889C46.9796 6.04361 46.2404 4.38111 46.8039 2.8987C46.8868 2.67859 46.9945 2.47349 47.1221 2.2884ZM55.449 17.2992C55.696 19.1618 55.7739 21.0945 55.6744 23.0521L51.6552 24.2594L48.1613 19.2269C49.4044 16.9807 52.1325 15.9336 54.5905 16.8774C54.8938 16.9941 55.1805 17.1358 55.449 17.3009V17.2992ZM23.8088 7.3576C27.4916 3.65908 31.8821 1.11281 36.2842 0.289062C37.4825 2.155 37.8124 4.54953 36.9654 6.78398C35.5533 10.5075 31.4081 12.3751 27.707 10.9544C25.9286 10.2724 24.5762 8.95339 23.8071 7.35593L23.8088 7.3576ZM39.0057 19.1852C39.5626 19.3986 39.977 19.8255 40.1924 20.3391L39.1648 20.6592L37.6102 19.1502C38.0494 19.0068 38.54 19.0068 39.0057 19.1852ZM43.6598 9.54369C45.0437 10.0756 45.7382 11.6347 45.2094 13.0271C44.6807 14.4195 43.131 15.1181 41.7471 14.5862C40.3631 14.0543 39.6687 12.4952 40.1974 11.1028C40.7261 9.71044 42.2758 9.01176 43.6598 9.54369Z" fill="#737274"/>
      <path fill-rule="evenodd" clip-rule="evenodd" d="M24.3196 50.9597C26.471 50.9597 28.2262 49.0088 28.2262 46.6176C28.2262 44.2264 26.471 42.2754 24.3196 42.2754C22.1683 42.2754 20.4131 44.2264 20.4131 46.6176C20.4131 49.0088 22.1683 50.9597 24.3196 50.9597Z" fill="#452877"/>
      <path fill-rule="evenodd" clip-rule="evenodd" d="M29.1591 26.9941C29.7426 26.9941 30.316 27.7495 30.4387 28.6817C30.563 29.6138 30.1901 30.3692 29.6067 30.3692C29.0232 30.3692 28.4498 29.6138 28.3271 28.6817C28.2028 27.7495 28.5757 26.9941 29.1591 26.9941Z" fill="#452877"/>
      <path fill-rule="evenodd" clip-rule="evenodd" d="M26.9929 26.9941C26.4095 26.9941 25.836 27.7495 25.7134 28.6817C25.589 29.6138 25.962 30.3692 26.5454 30.3692C27.1288 30.3692 27.7023 29.6138 27.8249 28.6817C27.9492 27.7495 27.5763 26.9941 26.9929 26.9941Z" fill="#452877"/>
      <path fill-rule="evenodd" clip-rule="evenodd" d="M58.7838 43.4058C59.813 46.6041 60.3848 50.0575 60.3848 53.5759C60.3848 67.4762 51.4828 77.0977 40.499 77.0977C39.4151 77.0977 38.351 77.0026 37.3135 76.8209C45.589 74.1679 51.6369 65.6203 51.6369 54.1629C51.6369 50.6444 51.0651 47.1911 50.0359 43.9928L49.2751 41.75L55.4573 45.9738L58.7838 43.4058Z" fill="#9C9B9D"/>
      <path fill-rule="evenodd" clip-rule="evenodd" d="M50.4087 42.5234L55.4572 45.9735L58.7837 43.4055C59.1185 44.4461 59.4052 45.5149 59.6389 46.6038C58.6809 47.7894 57.2191 48.5465 55.5815 48.5465C52.6943 48.5465 50.3524 46.1919 50.3524 43.2855C50.3524 43.027 50.3706 42.7736 50.4071 42.5251L50.4087 42.5234ZM60.3499 55.038C60.2223 57.8228 59.7301 60.4207 58.9345 62.7836C57.4014 62.2333 56.3025 60.7576 56.3025 59.025C56.3025 56.8223 58.0776 55.0364 60.2671 55.0364C60.2952 55.0364 60.3218 55.0364 60.3499 55.0364V55.038ZM55.9379 68.7766C53.9291 71.6513 51.3402 73.8825 48.3767 75.3082C46.8502 74.7162 45.6436 73.4772 45.0884 71.9248C47.0806 69.8588 48.7065 67.2958 49.8402 64.336C50.0292 64.3177 50.2198 64.3077 50.412 64.3077C53.1203 64.3077 55.3826 66.222 55.9379 68.7782V68.7766ZM51.5938 52.4901C52.9545 53.4055 53.8528 54.9663 53.8528 56.7372C53.8528 58.8499 52.5766 60.6642 50.7551 61.4396C51.3286 59.1834 51.6369 56.7456 51.6369 54.1593C51.6369 53.6006 51.6219 53.0437 51.5938 52.4901Z" fill="#4C4B4D"/>
      <path fill-rule="evenodd" clip-rule="evenodd" d="M54.0186 41.3379C56.1766 41.3379 57.7312 43.2822 57.4926 45.6801C57.2539 48.0779 55.3114 50.0222 53.1534 50.0222C50.9955 50.0222 49.4408 48.0779 49.6795 45.6801C49.9181 43.2822 51.8606 41.3379 54.0186 41.3379Z" fill="#452877"/>
    </g>
    <defs>
      <clipPath id="clip0_357_67211">
        <rect width="81" height="80" fill="white"/>
      </clipPath>
    </defs>
  </svg>