<svg xmlns="http://www.w3.org/2000/svg" width="16" height="16" viewBox="0 0 16 16" fill="none">
    <path d="M6.88651 11.0627H2.68604" stroke="#737274" stroke-width="1.5" stroke-linecap="round" stroke-linejoin="round"/>
    <path d="M8.76025 4.59979H12.9607" stroke="#737274" stroke-width="1.5" stroke-linecap="round" stroke-linejoin="round"/>
    <path fill-rule="evenodd" clip-rule="evenodd" d="M5.81736 4.56417C5.81736 3.7004 5.11192 3 4.24193 3C3.37194 3 2.6665 3.7004 2.6665 4.56417C2.6665 5.42794 3.37194 6.12834 4.24193 6.12834C5.11192 6.12834 5.81736 5.42794 5.81736 4.56417Z" stroke="#737274" stroke-width="1.5" stroke-linecap="round" stroke-linejoin="round"/>
    <path fill-rule="evenodd" clip-rule="evenodd" d="M13.333 11.0349C13.333 10.1711 12.6281 9.4707 11.7581 9.4707C10.8876 9.4707 10.1821 10.1711 10.1821 11.0349C10.1821 11.8986 10.8876 12.599 11.7581 12.599C12.6281 12.599 13.333 11.8986 13.333 11.0349Z" stroke="#737274" stroke-width="1.5" stroke-linecap="round" stroke-linejoin="round"/>
  </svg>