<svg width="28" height="28" viewBox="0 0 28 28" fill="none" xmlns="http://www.w3.org/2000/svg">
<path d="M0 6C0 2.68629 2.68629 0 6 0H22C25.3137 0 28 2.68629 28 6V22C28 25.3137 25.3137 28 22 28H6C2.68629 28 0 25.3137 0 22V6Z" fill="white"/>
<path fill-rule="evenodd" clip-rule="evenodd" d="M17.6117 6.29199H10.3876C7.87008 6.29199 6.29175 8.07449 6.29175 10.597V17.4037C6.29175 19.9262 7.86258 21.7087 10.3876 21.7087H17.6109C20.1367 21.7087 21.7084 19.9262 21.7084 17.4037V10.597C21.7084 8.07449 20.1367 6.29199 17.6117 6.29199Z" stroke="#815DE5" stroke-width="1.5" stroke-linecap="round" stroke-linejoin="round"/>
<path d="M13.9955 17.3333V14" stroke="#815DE5" stroke-width="1.5" stroke-linecap="round" stroke-linejoin="round"/>
<path d="M13.9916 10.8376H13.9999" stroke="#815DE5" stroke-width="2" stroke-linecap="round" stroke-linejoin="round"/>
</svg>
