<svg width="141" height="56" viewBox="0 0 141 56" fill="none" xmlns="http://www.w3.org/2000/svg">
<path d="M31.3798 41.8185C31.6786 42.2858 31.4652 42.5832 30.9529 42.5832H26.0861C25.7447 42.5832 25.4885 42.4559 25.3176 42.1585L18.8714 32.2588H16.3954V41.946C16.3954 42.3284 16.1394 42.5832 15.7551 42.5832H11.1873C10.803 42.5832 10.5469 42.3284 10.5469 41.946V13.4791C10.5469 13.0967 10.803 12.8418 11.1873 12.8418H20.0242C27.068 12.8418 30.8675 16.8781 30.8675 22.529C30.8675 26.8204 28.6903 30.1768 24.5919 31.579L31.3798 41.8185ZM16.3954 17.9828V27.0752H19.896C22.6282 27.0752 25.2751 26.0131 25.2751 22.529C25.2751 19.0875 22.6282 17.9828 19.896 17.9828H16.3954Z" fill="white"/>
<path d="M53.8155 31.7489C53.8155 33.4058 53.6021 34.2557 52.3213 34.2557H38.9168C39.4716 37.0175 41.6062 38.5894 44.8932 38.5894C46.5583 38.5894 47.8816 38.1645 49.333 37.1448C49.7173 36.8899 49.9735 36.8899 50.2723 37.1873L52.1506 39.0143C52.4495 39.3118 52.4495 39.6092 52.1079 39.9491C50.1015 41.946 47.3693 43.1356 44.3384 43.1356C37.8067 43.1356 33.3242 38.3346 33.3242 32.2162C33.3242 26.098 37.8067 21.2969 43.8688 21.2969C49.9307 21.2969 53.8155 26.098 53.8155 31.7489ZM43.9114 26.0555C41.3501 26.0555 39.3009 27.67 38.8313 30.6017H48.8209C48.4366 27.67 46.4301 26.0555 43.9114 26.0555Z" fill="white"/>
<path d="M76.7976 21.7642C77.1819 21.7642 77.438 22.0192 77.438 22.4016V41.946C77.438 42.3284 77.1819 42.5832 76.7976 42.5832H72.8701C72.486 42.5832 72.2725 42.3284 72.2298 41.946L72.0591 40.1614C70.5649 41.9035 68.473 43.1356 65.7409 43.1356C59.8924 43.1356 55.6233 38.292 55.6233 32.2162C55.6233 26.1404 59.8924 21.2969 65.7409 21.2969C68.3876 21.2969 70.5222 22.5715 72.1016 24.356L72.2298 22.4016C72.2725 22.0192 72.486 21.7642 72.8701 21.7642H76.7976ZM66.4239 38.037C69.4976 38.037 71.7602 35.3178 71.7602 32.1738C71.7602 29.0297 69.4976 26.3954 66.4239 26.3954C63.3075 26.3954 61.0449 28.8596 61.0449 32.1738C61.0449 35.5302 63.3075 38.037 66.4239 38.037Z" fill="white"/>
<path d="M79.2458 12.2047C79.2458 11.8223 79.502 11.5674 79.8861 11.5674H84.2406C84.6248 11.5674 84.8809 11.8223 84.8809 12.2047V41.9463C84.8809 42.3286 84.6248 42.5835 84.2406 42.5835H79.8861C79.502 42.5835 79.2458 42.3286 79.2458 41.9463V12.2047Z" fill="white"/>
<path d="M86.9873 22.401C86.9873 22.0186 87.2435 21.7637 87.6276 21.7637H91.9819C92.3662 21.7637 92.6224 22.0186 92.6224 22.401V41.9455C92.6224 42.3278 92.3662 42.5827 91.9819 42.5827H87.6276C87.2435 42.5827 86.9873 42.3278 86.9873 41.9455V22.401Z" fill="white"/>
<path d="M89.8048 17.8126C88.0545 17.8126 86.6885 16.4105 86.6885 14.711C86.6885 13.0115 88.0545 11.6094 89.8048 11.6094C91.5124 11.6094 92.8786 13.0115 92.8786 14.711C92.8786 16.4105 91.5124 17.8126 89.8048 17.8126Z" fill="#815DE5"/>
<path d="M112.36 22.402V25.886C112.36 26.1834 112.275 26.4808 112.062 26.6933L101.474 37.995H111.72C112.104 37.995 112.36 38.2499 112.36 38.6324V41.9464C112.36 42.3288 112.104 42.5836 111.72 42.5836H95.3267C94.9424 42.5836 94.6863 42.3288 94.6863 41.9464V38.4623C94.6863 38.1649 94.7717 37.8675 94.9851 37.6551L105.615 26.3533H95.3267C94.9424 26.3533 94.6863 26.0984 94.6863 25.7161V22.402C94.6863 22.0196 94.9424 21.7646 95.3267 21.7646H111.72C112.104 21.7646 112.36 22.0196 112.36 22.402Z" fill="white"/>
<path d="M134.658 31.7489C134.658 33.4058 134.445 34.2557 133.164 34.2557H119.76C120.314 37.0175 122.449 38.5894 125.735 38.5894C127.401 38.5894 128.724 38.1645 130.177 37.1448C130.56 36.8899 130.817 36.8899 131.115 37.1873L132.993 39.0143C133.293 39.3118 133.293 39.6092 132.951 39.9491C130.944 41.946 128.211 43.1356 125.181 43.1356C118.649 43.1356 114.168 38.3346 114.168 32.2162C114.168 26.098 118.649 21.2969 124.712 21.2969C130.773 21.2969 134.658 26.098 134.658 31.7489ZM124.754 26.0555C122.192 26.0555 120.143 27.67 119.674 30.6017H129.664C129.279 27.67 127.273 26.0555 124.754 26.0555Z" fill="white"/>
</svg>
