<svg width="343" height="88" viewBox="0 0 343 88" fill="none" xmlns="http://www.w3.org/2000/svg">
<rect width="343" height="88" rx="8" fill="#F1E8F6"/>
<g opacity="0.7">
<path d="M30 88V0H43.4355L98.5587 67.76H91.9037V0H108.102V88H94.6661L39.543 20.24H46.1979V88H30Z" fill="url(#paint0_linear_3310_5872)"/>
<path d="M146.722 36.5829H190.419V50.0343H146.722V36.5829ZM147.977 74.2971H197.576V88H131.654V0H195.818V13.7029H147.977V74.2971Z" fill="url(#paint1_linear_3310_5872)"/>
<path d="M235.265 88L206.134 0H223.085L249.077 79.5771H240.664L267.661 0H282.729L308.972 79.5771H300.81L327.43 0H343L313.869 88H296.541L272.558 16.2171H277.078L252.719 88H235.265Z" fill="url(#paint2_linear_3310_5872)"/>
</g>
<defs>
<linearGradient id="paint0_linear_3310_5872" x1="401.518" y1="0" x2="401.518" y2="88" gradientUnits="userSpaceOnUse">
<stop stop-color="#F7F4F9"/>
<stop offset="1" stop-color="#F7F4F9" stop-opacity="0"/>
</linearGradient>
<linearGradient id="paint1_linear_3310_5872" x1="401.518" y1="0" x2="401.518" y2="88" gradientUnits="userSpaceOnUse">
<stop stop-color="#F7F4F9"/>
<stop offset="1" stop-color="#F7F4F9" stop-opacity="0"/>
</linearGradient>
<linearGradient id="paint2_linear_3310_5872" x1="401.518" y1="0" x2="401.518" y2="88" gradientUnits="userSpaceOnUse">
<stop stop-color="#F7F4F9"/>
<stop offset="1" stop-color="#F7F4F9" stop-opacity="0"/>
</linearGradient>
</defs>
</svg>
