<svg width="88" height="88" viewBox="0 0 88 88" fill="none" xmlns="http://www.w3.org/2000/svg">
<rect width="88" height="88" rx="10" fill="#F4F3F4"/>
<path d="M53.3789 30.1316C53.2655 30.0598 53.1207 30.0603 53.0076 30.1329L42.9766 36.5751H44.2594L53.0104 30.955C53.1234 30.8824 53.2682 30.8819 53.3816 30.9537L64.573 38.0355C64.6064 38.0565 64.6266 38.0932 64.6266 38.1327V38.7166C64.6266 38.7801 64.5751 38.8317 64.5115 38.8317H56.8344V39.5251H57.3515V48.9731C57.3515 49.1639 57.5072 49.3185 57.6979 49.3185C57.8887 49.3185 58.0443 49.1639 58.0443 48.9731V39.5251H61.74C61.8036 39.5251 61.8551 39.5765 61.8551 39.6402V48.9731C61.8551 49.1639 62.0108 49.3185 62.2015 49.3185C62.3923 49.3185 62.548 49.1639 62.548 48.9731V39.6402C62.548 39.5765 62.5995 39.5251 62.6631 39.5251H64.9741C65.1649 39.5251 65.3195 39.3704 65.3195 39.1797V37.8775C65.3195 37.7592 65.2588 37.649 65.1588 37.5857L53.3789 30.1316Z" fill="#737274"/>
<path d="M56.8347 51.8321V51.1387H64.7146C64.9052 51.1387 65.0599 51.2934 65.0599 51.484V53.9703C65.0599 54.0339 65.1114 54.0854 65.1751 54.0854H66.2735C66.4643 54.0854 66.6188 54.24 66.6188 54.4308V57.6401C66.6188 57.8308 66.4643 57.9854 66.2735 57.9854H40.6045C40.0959 57.9854 39.6836 57.5732 39.6836 57.0645H40.6912C40.8532 57.2062 41.0652 57.2921 41.2973 57.2921H65.8109C65.8744 57.2921 65.926 57.2405 65.926 57.177V54.8938C65.926 54.8303 65.8744 54.7787 65.8109 54.7787H56.8347V54.0854H64.2519C64.3155 54.0854 64.367 54.0339 64.367 53.9703V51.9472C64.367 51.8836 64.3155 51.8321 64.2519 51.8321H56.8347Z" fill="#737274"/>
<path fill-rule="evenodd" clip-rule="evenodd" d="M23.746 48.9351C23.7073 48.8939 23.6836 48.8384 23.6836 48.7774V43.7126C23.6836 43.5856 23.7867 43.4824 23.9138 43.4824H28.9786C29.1057 43.4824 29.2088 43.5856 29.2088 43.7126V48.7774C29.2088 48.9045 29.1057 49.0076 28.9786 49.0076H23.9138C23.8477 49.0076 23.788 48.9797 23.746 48.9351Z" fill="#B383FC"/>
<path fill-rule="evenodd" clip-rule="evenodd" d="M23.7281 53.3571C23.701 53.3361 23.6836 53.3031 23.6836 53.2662V52.1151C23.6836 52.0515 23.7351 52 23.7987 52H54.4174C54.4809 52 54.5325 52.0515 54.5325 52.1151V53.2662C54.5325 53.3298 54.4809 53.3813 54.4174 53.3813H23.7987C23.7721 53.3813 23.7476 53.3723 23.7281 53.3571Z" fill="#878688"/>
<path fill-rule="evenodd" clip-rule="evenodd" d="M22.9924 36.5762C22.1024 36.5762 21.3809 37.2977 21.3809 38.1877V55.4539C21.3809 56.3439 22.1024 57.0654 22.9924 57.0654H55.2226C56.1126 57.0654 56.8341 56.3439 56.8341 55.4539V38.1877C56.8341 37.2977 56.1126 36.5762 55.2226 36.5762H22.9924ZM55.2226 36.9215H22.9924C22.2931 36.9215 21.7262 37.4884 21.7262 38.1877V55.4539C21.7262 56.1531 22.2931 56.7201 22.9924 56.7201H55.2226C55.9219 56.7201 56.4888 56.1531 56.4888 55.4539V38.1877C56.4888 37.4884 55.9219 36.9215 55.2226 36.9215Z" fill="#4C4B4D"/>
</svg>
