<svg width="122" height="115" viewBox="0 0 122 115" fill="none" xmlns="http://www.w3.org/2000/svg">
<path d="M28.3068 59.2714C29.8204 59.1002 30.8606 57.3092 30.63 55.271C30.3995 53.2329 28.9856 51.7195 27.4719 51.8907C25.9583 52.0619 24.9181 53.8529 25.1487 55.891C25.3792 57.9291 26.7931 59.4426 28.3068 59.2714Z" fill="url(#paint0_linear_354_6160)"/>
<path d="M27.7533 59.2484C29.1547 59.0899 30.1065 57.3318 29.8791 55.3217C29.6517 53.3116 28.3314 51.8106 26.93 51.9691C25.5285 52.1276 24.5768 53.8856 24.8041 55.8957C25.0315 57.9059 26.3519 59.4069 27.7533 59.2484Z" fill="url(#paint1_linear_354_6160)"/>
<path d="M29.4283 55.3893C29.621 57.0932 28.8141 58.5837 27.6261 58.718C26.438 58.8524 25.3186 57.5799 25.1259 55.8758C24.9331 54.1716 25.74 52.6813 26.9281 52.5468C28.1161 52.4126 29.2355 53.6851 29.4283 55.3893ZM25.2624 55.8603C25.4429 57.4562 26.4913 58.6481 27.6039 58.5222C28.7166 58.3964 29.4722 57.0006 29.2917 55.4047C29.1112 53.8088 28.0629 52.6169 26.9502 52.7428C25.8376 52.8687 25.0819 54.2644 25.2624 55.8603Z" fill="url(#paint2_linear_354_6160)"/>
<path d="M24.1577 50.8284C24.9193 50.7423 25.4427 49.8411 25.3267 48.8156C25.2107 47.7901 24.4992 47.0286 23.7376 47.1148C22.976 47.2009 22.4527 48.1021 22.5687 49.1276C22.6847 50.1531 23.3961 50.9146 24.1577 50.8284Z" fill="url(#paint3_linear_354_6160)"/>
<path d="M23.8792 50.8171C24.5843 50.7373 25.0632 49.8527 24.9488 48.8413C24.8344 47.8299 24.1701 47.0747 23.4649 47.1544C22.7598 47.2342 22.2809 48.1187 22.3953 49.1302C22.5097 50.1416 23.1741 50.8968 23.8792 50.8171Z" fill="url(#paint4_linear_354_6160)"/>
<path d="M24.722 48.875C24.819 49.7325 24.413 50.4824 23.8152 50.5501C23.2174 50.6177 22.6542 49.9774 22.5572 49.1199C22.4602 48.2624 22.8662 47.5125 23.464 47.4451C24.0618 47.3774 24.625 48.0175 24.722 48.875ZM22.6259 49.1122C22.7167 49.9152 23.2442 50.5148 23.804 50.4515C24.3639 50.3883 24.7441 49.686 24.6533 48.883C24.5624 48.0799 24.035 47.4801 23.4751 47.5436C22.9153 47.6069 22.5351 48.3092 22.6259 49.1122Z" fill="url(#paint5_linear_354_6160)"/>
<path d="M23.7168 56.3319C24.4784 56.2457 25.0018 55.3445 24.8858 54.319C24.7698 53.2935 24.0584 52.532 23.2968 52.6182C22.5352 52.7043 22.0118 53.6055 22.1278 54.631C22.2438 55.6565 22.9552 56.418 23.7168 56.3319Z" fill="url(#paint6_linear_354_6160)"/>
<path d="M23.4383 56.3205C24.1435 56.2407 24.6224 55.3562 24.508 54.3447C24.3936 53.3333 23.7292 52.5781 23.0241 52.6578C22.3189 52.7376 21.84 53.6222 21.9544 54.6336C22.0688 55.645 22.7332 56.4002 23.4383 56.3205Z" fill="url(#paint7_linear_354_6160)"/>
<path d="M24.2811 54.3786C24.3781 55.2361 23.9721 55.986 23.3743 56.0537C22.7765 56.1211 22.2133 55.481 22.1163 54.6235C22.0194 53.7661 22.4253 53.0162 23.0231 52.9485C23.6209 52.881 24.1841 53.5212 24.2811 54.3786ZM22.185 54.6158C22.2759 55.4188 22.8034 56.0184 23.3632 55.9551C23.923 55.8917 24.3032 55.1894 24.2124 54.3863C24.1216 53.5833 23.5941 52.9837 23.0343 53.047C22.4744 53.1105 22.0942 53.8128 22.185 54.6158Z" fill="url(#paint8_linear_354_6160)"/>
<g filter="url(#filter0_f_354_6160)">
<path d="M53.8199 66.7904C55.3188 68.2012 76.267 69.2885 86.5538 69.656L95.7016 63.7044C94.9962 62.5582 93.7912 62.492 93.2769 62.6022C87.6339 64.013 73.1443 58.5611 66.6048 55.6587L44.672 60.8388V62.6022L40.5941 62.3818L38.0591 63.7044C42.6882 64.1453 52.321 65.3797 53.8199 66.7904Z" fill="url(#paint9_linear_354_6160)"/>
</g>
<g filter="url(#filter1_f_354_6160)">
<path d="M46.8763 62.5008V64.2643L61.5349 67.8436L75.0914 63.1621C73.328 63.6912 67.0825 60.2172 64.1801 58.4141L46.8763 62.5008Z" fill="#3C1877"/>
</g>
<path d="M75.2016 25.129L64.621 23.0349H51.1747L34.7527 27.9946C33.3419 28.4355 32.6219 30.3825 32.4382 31.301L32.328 54.336C32.4161 58.4801 34.7159 60.0304 35.8548 60.2876L56.1344 64.1451C62.5269 62.0879 75.6645 57.8408 77.0753 57.3118C78.486 56.7828 78.8387 54.8137 78.8387 53.8951V29.4274C78.2215 26.6059 76.1567 25.3862 75.2016 25.129Z" fill="#B383FC"/>
<path d="M58.7796 65.7983V63.2922L56.0242 64.1451V65.7983C56.9941 66.5919 58.2653 66.1289 58.7796 65.7983Z" fill="url(#paint10_linear_354_6160)"/>
<path d="M41.1452 62.6021V61.3051L38.7204 60.8386V62.4918L39.0511 62.8225C40.1091 63.4397 40.8879 62.9327 41.1452 62.6021Z" fill="url(#paint11_linear_354_6160)"/>
<path d="M70.2419 61.5001V59.5162L72.5565 58.8223V61.5001C71.5866 62.1173 70.6094 61.7573 70.2419 61.5001Z" fill="url(#paint12_linear_354_6160)"/>
<g filter="url(#filter2_f_354_6160)">
<path d="M35.8548 60.2876L56.1344 64.1452C57.3688 63.8807 58.1183 61.6836 58.3387 60.6183L58.5591 35.7097C58.2946 33.1527 56.0242 31.8522 54.922 31.5215L34.7527 27.9946C33.3419 28.4355 32.6219 30.3825 32.4382 31.3011L32.328 54.336C32.4161 58.4801 34.7159 60.0304 35.8548 60.2876Z" fill="#B383FC"/>
<path d="M35.8548 60.2876L56.1344 64.1452C57.3688 63.8807 58.1183 61.6836 58.3387 60.6183L58.5591 35.7097C58.2946 33.1527 56.0242 31.8522 54.922 31.5215L34.7527 27.9946C33.3419 28.4355 32.6219 30.3825 32.4382 31.3011L32.328 54.336C32.4161 58.4801 34.7159 60.0304 35.8548 60.2876Z" stroke="url(#paint13_linear_354_6160)"/>
</g>
<path d="M51.7258 34.0565L36.6264 31.4114C34.422 31.4114 33.6505 33.1748 33.5403 34.0565V54.4463C34.1575 56.9151 36.0753 57.9732 36.957 58.1936L52.0565 60.8388C54.4371 60.0452 55.1057 57.9364 55.1425 56.9813V38.2447C54.5253 35.5114 52.6075 34.3138 51.7258 34.0565Z" fill="#B383FC" stroke="url(#paint14_linear_354_6160)" stroke-width="0.4"/>
<path d="M36.957 58.1935C36.0753 57.9731 34.1575 56.915 33.5403 54.4462V34.0564" stroke="url(#paint15_linear_354_6160)" stroke-width="0.2"/>
<path d="M51.7258 34.0565L36.6264 31.4113C34.422 31.4113 33.6505 33.1748 33.5403 34.0565C33.5771 32.9911 34.378 30.8823 37.2876 30.9705L52.3871 33.5054C53.4893 33.9463 55.7376 35.4672 55.914 38.0242V56.9812C55.8406 58.157 54.9661 60.5744 52.0565 60.8387C54.4371 60.0452 55.1057 57.9366 55.1425 56.9812V38.2446C54.5253 35.5113 52.6075 34.3137 51.7258 34.0565Z" fill="#9D6CED" stroke="#9A70F0" stroke-width="0.1"/>
<g opacity="0.48" filter="url(#filter3_f_354_6160)">
<path d="M52.828 61.7205C56.0903 61.8968 56.9059 59.2957 56.9059 57.9731C55.8478 61.0592 53.232 61.1694 52.0564 60.8387L38.7204 58.6344C40.1532 59.2957 48.75 61.5 52.828 61.7205Z" fill="#7044BC"/>
</g>
<g opacity="0.64" filter="url(#filter4_f_354_6160)">
<path d="M55.914 38.0242C55.7376 35.4672 53.4893 33.9462 52.3871 33.5054C53.7097 33.7258 56.4651 35.2027 56.9059 39.3468C57.3468 43.4909 57.0895 53.4911 56.9059 57.9731C55.8479 61.0591 53.232 61.1693 52.0565 60.8387C54.9661 60.5744 55.8406 58.157 55.914 56.9812V38.0242Z" fill="#7044BC"/>
</g>
<g filter="url(#filter5_f_354_6160)">
<path d="M78.8387 29.4275C78.2215 26.606 76.1567 25.3864 75.2016 25.1292L54.922 31.5216C56.0242 31.8523 58.2946 33.1528 58.5591 35.7098L58.5567 35.9811L78.8387 29.4275Z" fill="url(#paint16_linear_354_6160)"/>
</g>
<g filter="url(#filter6_f_354_6160)">
<path d="M78.8387 53.8953C78.8387 54.8138 78.486 56.7829 77.0753 57.3119C75.6817 57.8346 62.8456 61.9848 56.3714 64.069C56.2944 64.1023 56.2155 64.1278 56.1344 64.1453C56.2124 64.1201 56.2913 64.0948 56.3714 64.069C57.4649 63.5971 58.1328 61.6138 58.3387 60.6184L78.8387 53.8953Z" fill="url(#paint17_linear_354_6160)"/>
</g>
<g filter="url(#filter7_f_354_6160)">
<path d="M62.6371 28.4355L46.2151 25.0188L47.6479 24.4678L64.1801 27.9947L63.078 28.5457L62.6371 28.4355Z" fill="#121113"/>
</g>
<g filter="url(#filter8_f_354_6160)">
<path d="M62.6371 28.4355L46.2151 25.0188L47.6479 24.4678L64.1801 27.9947L63.078 28.5457L62.6371 28.4355Z" fill="#121113"/>
</g>
<path d="M46.3253 25.0189C45.4109 15.571 49.4785 12.9047 52.4973 12.6391L54.7746 12.3741C54.9454 12.3542 55.1165 12.3579 55.2849 12.3932C59.0428 13.181 65.5256 17.1087 63.629 27.8845L62.6371 28.3253L46.3253 25.0189Z" fill="url(#paint18_linear_354_6160)"/>
<path d="M53.931 13.5013C62.1698 15.2421 62.802 24.0357 62.0882 28.2151L46.9976 25.1066C46.0187 14.8277 51.212 13.0869 53.931 13.5013Z" fill="url(#paint19_linear_354_6160)"/>
<path d="M53.8492 13.9398C61.7347 15.6026 62.3397 24.0025 61.6566 27.9947L47.2127 25.0253C46.2759 15.2067 51.2466 13.5439 53.8492 13.9398Z" fill="url(#paint20_linear_354_6160)"/>
<path d="M53.8199 12.6748C62.7253 14.5264 63.4086 23.8799 62.6371 28.3253L63.629 27.8845C65.5256 17.1087 59.0428 13.181 55.2849 12.3932C55.1165 12.3579 54.9454 12.3542 54.7746 12.3741L52.4973 12.6391C53.379 12.5646 53.7831 12.651 53.8199 12.6748Z" fill="url(#paint21_linear_354_6160)"/>
<path d="M62.8386 26.5619C63.5289 26.3856 63.868 25.4598 63.9511 25.0189C63.9797 24.3645 63.974 23.7404 63.9372 23.1453C63.7315 23.88 63.2303 25.2834 62.8685 25.0189C62.8802 25.5552 62.8685 26.0726 62.8386 26.5619Z" fill="url(#paint22_linear_354_6160)"/>
<g filter="url(#filter9_f_354_6160)">
<path d="M62.6371 28.3253L63.629 27.8844C63.8074 26.8704 63.9116 25.9162 63.9511 25.0188C63.868 25.4597 63.529 26.3855 62.8386 26.5618C62.7993 27.2046 62.7284 27.7993 62.6371 28.3253Z" fill="url(#paint23_linear_354_6160)"/>
</g>
<path d="M48.8602 51.1399C50.6254 51.1399 52.0564 49.4622 52.0564 47.3926C52.0564 45.323 50.6254 43.6453 48.8602 43.6453C47.095 43.6453 45.664 45.323 45.664 47.3926C45.664 49.4622 47.095 51.1399 48.8602 51.1399Z" fill="url(#paint24_linear_354_6160)" fill-opacity="0.17"/>
<path d="M52.0344 47.3925C52.0344 49.4533 50.6102 51.1178 48.8602 51.1178C47.1102 51.1178 45.686 49.4533 45.686 47.3925C45.686 45.3317 47.1102 43.6672 48.8602 43.6672C50.6102 43.6672 52.0344 45.3317 52.0344 47.3925Z" stroke="url(#paint25_linear_354_6160)" stroke-opacity="0.2" stroke-width="0.2"/>
<path d="M49.4113 49.1558C51.0645 47.723 49.9624 46.327 49.0806 45.8494L46.6559 46.2902C46.1031 46.3907 45.4435 47.0562 45.4435 48.1639C45.4435 49.1558 45.8844 49.7069 47.3172 49.7069L49.4113 49.1558Z" stroke="url(#paint26_linear_354_6160)" stroke-width="0.1"/>
<path d="M49.4113 49.1558C51.0645 47.723 49.9624 46.327 49.0806 45.8494L46.6559 46.2902C47.8683 46.0698 48.4194 46.9515 48.4194 47.8332C48.4194 48.715 47.9785 49.3762 47.3172 49.7069L49.4113 49.1558Z" fill="#B383FC"/>
<g opacity="0.64" filter="url(#filter10_f_354_6160)">
<path d="M49.7419 49.0457C51.0352 47.9045 50.4797 46.7362 49.902 46.1067H49.5643C50.1378 46.572 50.9433 47.8223 49.5766 49.1008L49.7419 49.0457Z" fill="#5A359B"/>
</g>
<g filter="url(#filter11_f_354_6160)">
<path d="M47.7581 46.4564L49.5777 46.1802C49.7697 46.3349 49.9516 46.5199 50.0909 46.7313L48.2642 47.0619C48.1553 46.815 47.9877 46.6014 47.7581 46.4564Z" fill="#5A359B"/>
</g>
<g opacity="0.78" filter="url(#filter12_f_354_6160)">
<path d="M46.6559 46.2902L49.0806 45.8494C49.2398 45.9356 49.4124 46.0467 49.5777 46.18L47.7581 46.4562C47.4823 46.2819 47.1168 46.2065 46.6559 46.2902Z" fill="#C89CFF"/>
</g>
<path d="M45.4435 48.164C45.4435 47.0564 46.1031 46.3909 46.6559 46.2904C47.8683 46.0699 48.4193 46.9517 48.4193 47.8334C48.4193 48.7151 48.1989 49.3764 47.3172 49.707C46.1048 49.9275 45.4435 49.156 45.4435 48.164Z" fill="url(#paint27_linear_354_6160)" stroke="url(#paint28_linear_354_6160)" stroke-width="0.2"/>
<g filter="url(#filter13_f_354_6160)">
<path d="M48.8602 51.1399C50.6254 51.1399 52.0565 49.4622 52.0565 47.3926C52.0565 45.323 50.6254 43.6453 48.8602 43.6453C49.2643 43.6453 50.1828 43.7114 50.6237 43.9759C51.1747 44.3066 53.0484 46.2904 52.0565 49.0458C51.836 49.7439 50.8882 51.1399 48.8602 51.1399Z" fill="url(#paint29_linear_354_6160)"/>
</g>
<g opacity="0.4" filter="url(#filter14_f_354_6160)">
<path d="M50.6237 43.9758C50.7434 44.0477 50.9256 44.1976 51.1271 44.4165L55.0323 47.8334V50.5887V52.5726L50.6237 50.7078C51.4681 50.2387 51.9141 49.4967 52.0565 49.0457C52.8328 46.889 51.8537 45.2049 51.1271 44.4165L50.6237 43.9758Z" fill="#5A359B"/>
</g>
<g filter="url(#filter15_f_354_6160)">
<path d="M62.9677 28.5568C63.2984 28.263 64.3344 27.7632 65.8333 28.1159C66.6908 28.3178 67.2525 28.5771 67.5968 28.8034L66.3844 29.2891C65.651 28.8372 63.9143 28.6161 62.9677 28.5568Z" fill="url(#paint30_linear_354_6160)"/>
</g>
<g filter="url(#filter16_d_354_6160)">
<path d="M62.6371 28.3253C63.4086 23.8799 62.7253 14.5264 53.8199 12.6748C50.8809 12.2339 45.2672 14.0855 46.3253 25.0189" stroke="url(#paint31_linear_354_6160)" stroke-width="0.1"/>
</g>
<g filter="url(#filter17_f_354_6160)">
<path d="M53.8199 12.6748C57.6232 13.4656 59.9269 15.6248 61.2581 18.1856" stroke="#8A8A8A" stroke-opacity="0.08" stroke-width="0.1"/>
</g>
<g opacity="0.48" filter="url(#filter18_f_354_6160)">
<path d="M57.5214 14.1074C60.0631 15.6708 61.4891 18.0945 62.2187 20.6101" stroke="#555555" stroke-width="0.1"/>
</g>
<g filter="url(#filter19_f_354_6160)">
<path d="M56.1344 27.0824L46.2151 25.0187L46.4355 24.9338L56.4651 27.0026L56.1344 27.0824Z" fill="#121113"/>
</g>
<path d="M84.044 19.1913C84.0376 19.1068 84.0345 19.0279 84.0345 18.957C84.0402 19.0377 84.0433 19.1158 84.044 19.1913C84.0958 19.8757 84.3792 20.9271 85.2312 21.0189C84.8666 21.2545 84.1897 21.9317 84.1531 22.8732C84.1619 22.9746 84.1636 23.067 84.1606 23.1452C84.152 23.0524 84.1498 22.9616 84.1531 22.8732C84.1041 22.3067 83.8387 21.4538 83.0269 21.1478C83.3835 21.0261 84.0548 20.4679 84.044 19.1913Z" fill="#DAB7FF"/>
<path d="M24.9686 69.8903C24.9622 69.8057 24.9593 69.7268 24.9593 69.656C24.9649 69.7367 24.968 69.8147 24.9686 69.8903C25.0206 70.5748 25.3038 71.6262 26.1559 71.7179C25.7913 71.9535 25.1143 72.6307 25.0778 73.5722C25.0866 73.6736 25.0884 73.7659 25.0853 73.8442C25.0766 73.7514 25.0744 73.6606 25.0778 73.5722C25.0288 73.0057 24.7635 72.1528 23.9516 71.8466C24.3084 71.7252 24.9795 71.1668 24.9686 69.8903Z" fill="#DAB7FF"/>
<path d="M27.987 75.29C27.9838 75.2457 27.9823 75.204 27.9823 75.1667C27.9852 75.2093 27.9867 75.2503 27.987 75.29C28.013 75.6504 28.1546 76.2037 28.5807 76.2519C28.3983 76.376 28.0598 76.7325 28.0416 77.228C28.046 77.2813 28.0469 77.3298 28.0453 77.371C28.041 77.3221 28.0399 77.2745 28.0416 77.228C28.0171 76.9298 27.8845 76.4807 27.4785 76.3198C27.6569 76.2557 27.9925 75.9621 27.987 75.29Z" fill="#DAB7FF"/>
<path d="M84.1967 50.1608C84.1934 50.1165 84.1921 50.0749 84.1921 50.0376C84.1947 50.0801 84.1963 50.1211 84.1967 50.1608C84.2227 50.5212 84.3642 51.0745 84.7903 51.1228C84.608 51.2469 84.2694 51.6033 84.2514 52.0988C84.2556 52.1522 84.2567 52.2007 84.2549 52.2419C84.2507 52.193 84.2496 52.1453 84.2514 52.0988C84.2267 51.8006 84.0942 51.3516 83.6882 51.1907C83.8665 51.1265 84.2022 50.8329 84.1967 50.1608Z" fill="#DAB7FF"/>
<path opacity="0.26" d="M96.4731 55.328C95.0862 54.3636 91.688 54.3636 90.9251 54.2258C88.0403 54.7769 85.1924 61.0684 84.129 64.1452H90.6478C91.2582 60.7836 94.7857 56.8664 96.4731 55.328Z" fill="url(#paint32_linear_354_6160)"/>
<path opacity="0.26" d="M95.4999 55.4993C94.3764 54.7215 91.6235 54.7215 91.0055 54.6104C88.6685 55.0548 86.3614 60.129 85.4999 62.6104H90.7808C91.2753 59.8993 94.133 56.74 95.4999 55.4993Z" fill="url(#paint33_linear_354_6160)"/>
<path opacity="0.28" d="M90.2557 48.2743C90.6813 44.1125 88.0099 38.3108 86.621 35.9302L82.3656 38.928C83.855 43.513 83.7545 47.6571 83.518 49.156C83.8017 48.6622 88.1281 48.3624 90.2557 48.2743Z" fill="url(#paint34_linear_354_6160)"/>
<path opacity="0.28" d="M89.7061 46.7669C90.0816 43.3056 87.7251 38.4802 86.4999 36.5002L82.7462 38.9936C84.0601 42.8069 83.9714 46.2536 83.7627 47.5002C84.013 47.0896 87.8294 46.8402 89.7061 46.7669Z" fill="url(#paint35_linear_354_6160)"/>
<path opacity="0.28" d="M45.5538 12.0845C45.5538 13.1866 45.9726 15.435 47.6479 15.6114C46.9498 16.0522 45.5979 17.3968 45.7742 19.2485C45.811 18.3667 45.4656 16.449 43.7903 15.8318C44.4516 15.6114 45.7301 14.5533 45.5538 12.0845Z" fill="url(#paint36_linear_354_6160)"/>
<defs>
<filter id="filter0_f_354_6160" x="31.0591" y="48.6587" width="71.6425" height="27.9973" filterUnits="userSpaceOnUse" color-interpolation-filters="sRGB">
<feFlood flood-opacity="0" result="BackgroundImageFix"/>
<feBlend mode="normal" in="SourceGraphic" in2="BackgroundImageFix" result="shape"/>
<feGaussianBlur stdDeviation="3.5" result="effect1_foregroundBlur_354_6160"/>
</filter>
<filter id="filter1_f_354_6160" x="0.0763435" y="11.6141" width="121.815" height="103.029" filterUnits="userSpaceOnUse" color-interpolation-filters="sRGB">
<feFlood flood-opacity="0" result="BackgroundImageFix"/>
<feBlend mode="normal" in="SourceGraphic" in2="BackgroundImageFix" result="shape"/>
<feGaussianBlur stdDeviation="23.4" result="effect1_foregroundBlur_354_6160"/>
</filter>
<filter id="filter2_f_354_6160" x="30.9278" y="26.5812" width="29.0316" height="38.9741" filterUnits="userSpaceOnUse" color-interpolation-filters="sRGB">
<feFlood flood-opacity="0" result="BackgroundImageFix"/>
<feBlend mode="normal" in="SourceGraphic" in2="BackgroundImageFix" result="shape"/>
<feGaussianBlur stdDeviation="0.45" result="effect1_foregroundBlur_354_6160"/>
</filter>
<filter id="filter3_f_354_6160" x="30.7204" y="49.9731" width="34.1855" height="19.7559" filterUnits="userSpaceOnUse" color-interpolation-filters="sRGB">
<feFlood flood-opacity="0" result="BackgroundImageFix"/>
<feBlend mode="normal" in="SourceGraphic" in2="BackgroundImageFix" result="shape"/>
<feGaussianBlur stdDeviation="4" result="effect1_foregroundBlur_354_6160"/>
</filter>
<filter id="filter4_f_354_6160" x="44.0565" y="25.5054" width="21.0929" height="43.4607" filterUnits="userSpaceOnUse" color-interpolation-filters="sRGB">
<feFlood flood-opacity="0" result="BackgroundImageFix"/>
<feBlend mode="normal" in="SourceGraphic" in2="BackgroundImageFix" result="shape"/>
<feGaussianBlur stdDeviation="4" result="effect1_foregroundBlur_354_6160"/>
</filter>
<filter id="filter5_f_354_6160" x="46.922" y="17.1292" width="39.9167" height="26.8521" filterUnits="userSpaceOnUse" color-interpolation-filters="sRGB">
<feFlood flood-opacity="0" result="BackgroundImageFix"/>
<feBlend mode="normal" in="SourceGraphic" in2="BackgroundImageFix" result="shape"/>
<feGaussianBlur stdDeviation="4" result="effect1_foregroundBlur_354_6160"/>
</filter>
<filter id="filter6_f_354_6160" x="48.1344" y="45.8953" width="38.7043" height="26.25" filterUnits="userSpaceOnUse" color-interpolation-filters="sRGB">
<feFlood flood-opacity="0" result="BackgroundImageFix"/>
<feBlend mode="normal" in="SourceGraphic" in2="BackgroundImageFix" result="shape"/>
<feGaussianBlur stdDeviation="4" result="effect1_foregroundBlur_354_6160"/>
</filter>
<filter id="filter7_f_354_6160" x="45.6151" y="23.8678" width="19.1651" height="5.27788" filterUnits="userSpaceOnUse" color-interpolation-filters="sRGB">
<feFlood flood-opacity="0" result="BackgroundImageFix"/>
<feBlend mode="normal" in="SourceGraphic" in2="BackgroundImageFix" result="shape"/>
<feGaussianBlur stdDeviation="0.3" result="effect1_foregroundBlur_354_6160"/>
</filter>
<filter id="filter8_f_354_6160" x="45.2151" y="23.4678" width="19.9651" height="6.07788" filterUnits="userSpaceOnUse" color-interpolation-filters="sRGB">
<feFlood flood-opacity="0" result="BackgroundImageFix"/>
<feBlend mode="normal" in="SourceGraphic" in2="BackgroundImageFix" result="shape"/>
<feGaussianBlur stdDeviation="0.5" result="effect1_foregroundBlur_354_6160"/>
</filter>
<filter id="filter9_f_354_6160" x="61.6371" y="24.0188" width="3.31398" height="5.3064" filterUnits="userSpaceOnUse" color-interpolation-filters="sRGB">
<feFlood flood-opacity="0" result="BackgroundImageFix"/>
<feBlend mode="normal" in="SourceGraphic" in2="BackgroundImageFix" result="shape"/>
<feGaussianBlur stdDeviation="0.5" result="effect1_foregroundBlur_354_6160"/>
</filter>
<filter id="filter10_f_354_6160" x="47.5643" y="44.1067" width="4.9669" height="6.99414" filterUnits="userSpaceOnUse" color-interpolation-filters="sRGB">
<feFlood flood-opacity="0" result="BackgroundImageFix"/>
<feBlend mode="normal" in="SourceGraphic" in2="BackgroundImageFix" result="shape"/>
<feGaussianBlur stdDeviation="1" result="effect1_foregroundBlur_354_6160"/>
</filter>
<filter id="filter11_f_354_6160" x="41.7581" y="40.1802" width="14.3328" height="12.8818" filterUnits="userSpaceOnUse" color-interpolation-filters="sRGB">
<feFlood flood-opacity="0" result="BackgroundImageFix"/>
<feBlend mode="normal" in="SourceGraphic" in2="BackgroundImageFix" result="shape"/>
<feGaussianBlur stdDeviation="3" result="effect1_foregroundBlur_354_6160"/>
</filter>
<filter id="filter12_f_354_6160" x="44.6559" y="43.8494" width="6.9218" height="4.60693" filterUnits="userSpaceOnUse" color-interpolation-filters="sRGB">
<feFlood flood-opacity="0" result="BackgroundImageFix"/>
<feBlend mode="normal" in="SourceGraphic" in2="BackgroundImageFix" result="shape"/>
<feGaussianBlur stdDeviation="1" result="effect1_foregroundBlur_354_6160"/>
</filter>
<filter id="filter13_f_354_6160" x="47.8602" y="42.6453" width="5.48109" height="9.49463" filterUnits="userSpaceOnUse" color-interpolation-filters="sRGB">
<feFlood flood-opacity="0" result="BackgroundImageFix"/>
<feBlend mode="normal" in="SourceGraphic" in2="BackgroundImageFix" result="shape"/>
<feGaussianBlur stdDeviation="0.5" result="effect1_foregroundBlur_354_6160"/>
</filter>
<filter id="filter14_f_354_6160" x="34.6237" y="27.9758" width="36.4086" height="40.5967" filterUnits="userSpaceOnUse" color-interpolation-filters="sRGB">
<feFlood flood-opacity="0" result="BackgroundImageFix"/>
<feBlend mode="normal" in="SourceGraphic" in2="BackgroundImageFix" result="shape"/>
<feGaussianBlur stdDeviation="8" result="effect1_foregroundBlur_354_6160"/>
</filter>
<filter id="filter15_f_354_6160" x="61.9677" y="26.9946" width="6.62903" height="3.29443" filterUnits="userSpaceOnUse" color-interpolation-filters="sRGB">
<feFlood flood-opacity="0" result="BackgroundImageFix"/>
<feBlend mode="normal" in="SourceGraphic" in2="BackgroundImageFix" result="shape"/>
<feGaussianBlur stdDeviation="0.5" result="effect1_foregroundBlur_354_6160"/>
</filter>
<filter id="filter16_d_354_6160" x="42.1443" y="12.5662" width="24.7787" height="23.7676" filterUnits="userSpaceOnUse" color-interpolation-filters="sRGB">
<feFlood flood-opacity="0" result="BackgroundImageFix"/>
<feColorMatrix in="SourceAlpha" type="matrix" values="0 0 0 0 0 0 0 0 0 0 0 0 0 0 0 0 0 0 127 0" result="hardAlpha"/>
<feOffset dy="4"/>
<feGaussianBlur stdDeviation="2"/>
<feComposite in2="hardAlpha" operator="out"/>
<feColorMatrix type="matrix" values="0 0 0 0 0 0 0 0 0 0 0 0 0 0 0 0 0 0 0.25 0"/>
<feBlend mode="normal" in2="BackgroundImageFix" result="effect1_dropShadow_354_6160"/>
<feBlend mode="normal" in="SourceGraphic" in2="effect1_dropShadow_354_6160" result="shape"/>
</filter>
<filter id="filter17_f_354_6160" x="41.8097" y="0.625732" width="31.4927" height="29.583" filterUnits="userSpaceOnUse" color-interpolation-filters="sRGB">
<feFlood flood-opacity="0" result="BackgroundImageFix"/>
<feBlend mode="normal" in="SourceGraphic" in2="BackgroundImageFix" result="shape"/>
<feGaussianBlur stdDeviation="6" result="effect1_foregroundBlur_354_6160"/>
</filter>
<filter id="filter18_f_354_6160" x="55.4952" y="12.0649" width="8.77159" height="10.5591" filterUnits="userSpaceOnUse" color-interpolation-filters="sRGB">
<feFlood flood-opacity="0" result="BackgroundImageFix"/>
<feBlend mode="normal" in="SourceGraphic" in2="BackgroundImageFix" result="shape"/>
<feGaussianBlur stdDeviation="1" result="effect1_foregroundBlur_354_6160"/>
</filter>
<filter id="filter19_f_354_6160" x="45.6151" y="24.3338" width="11.45" height="3.34844" filterUnits="userSpaceOnUse" color-interpolation-filters="sRGB">
<feFlood flood-opacity="0" result="BackgroundImageFix"/>
<feBlend mode="normal" in="SourceGraphic" in2="BackgroundImageFix" result="shape"/>
<feGaussianBlur stdDeviation="0.3" result="effect1_foregroundBlur_354_6160"/>
</filter>
<linearGradient id="paint0_linear_354_6160" x1="27.6376" y1="51.7425" x2="28.4869" y2="59.2509" gradientUnits="userSpaceOnUse">
<stop stop-color="#C78242"/>
<stop offset="1" stop-color="#AB815A"/>
</linearGradient>
<linearGradient id="paint1_linear_354_6160" x1="27.0824" y1="51.824" x2="27.9201" y2="59.2295" gradientUnits="userSpaceOnUse">
<stop stop-color="#D49A63"/>
<stop offset="1" stop-color="#BC9673"/>
</linearGradient>
<linearGradient id="paint2_linear_354_6160" x1="27.0574" y1="52.424" x2="27.7674" y2="58.7021" gradientUnits="userSpaceOnUse">
<stop stop-color="#C78242"/>
<stop offset="1" stop-color="#AB815A"/>
</linearGradient>
<linearGradient id="paint3_linear_354_6160" x1="23.821" y1="47.0402" x2="24.2483" y2="50.8183" gradientUnits="userSpaceOnUse">
<stop stop-color="#C78242"/>
<stop offset="1" stop-color="#AB815A"/>
</linearGradient>
<linearGradient id="paint4_linear_354_6160" x1="23.5416" y1="47.0814" x2="23.9631" y2="50.8076" gradientUnits="userSpaceOnUse">
<stop stop-color="#D49A63"/>
<stop offset="1" stop-color="#BC9673"/>
</linearGradient>
<linearGradient id="paint5_linear_354_6160" x1="23.529" y1="47.3832" x2="23.8863" y2="50.5419" gradientUnits="userSpaceOnUse">
<stop stop-color="#C78242"/>
<stop offset="1" stop-color="#AB815A"/>
</linearGradient>
<linearGradient id="paint6_linear_354_6160" x1="23.3801" y1="52.5436" x2="23.8074" y2="56.3215" gradientUnits="userSpaceOnUse">
<stop stop-color="#C78242"/>
<stop offset="1" stop-color="#AB815A"/>
</linearGradient>
<linearGradient id="paint7_linear_354_6160" x1="23.1008" y1="52.5848" x2="23.5223" y2="56.311" gradientUnits="userSpaceOnUse">
<stop stop-color="#D49A63"/>
<stop offset="1" stop-color="#BC9673"/>
</linearGradient>
<linearGradient id="paint8_linear_354_6160" x1="23.0882" y1="52.8868" x2="23.4455" y2="56.0455" gradientUnits="userSpaceOnUse">
<stop stop-color="#C78242"/>
<stop offset="1" stop-color="#AB815A"/>
</linearGradient>
<linearGradient id="paint9_linear_354_6160" x1="66.8804" y1="55.6587" x2="87.6559" y2="71.3092" gradientUnits="userSpaceOnUse">
<stop stop-color="#969696"/>
<stop offset="1" stop-color="#969696" stop-opacity="0"/>
</linearGradient>
<linearGradient id="paint10_linear_354_6160" x1="56.2865" y1="64.2917" x2="57.9558" y2="63.8676" gradientUnits="userSpaceOnUse">
<stop stop-color="#A18AE0"/>
<stop offset="1" stop-color="#815DE5"/>
</linearGradient>
<linearGradient id="paint11_linear_354_6160" x1="38.9514" y1="61.6108" x2="40.3942" y2="61.1931" gradientUnits="userSpaceOnUse">
<stop stop-color="#A18AE0"/>
<stop offset="1" stop-color="#815DE5"/>
</linearGradient>
<linearGradient id="paint12_linear_354_6160" x1="70.4624" y1="59.8468" x2="71.893" y2="59.549" gradientUnits="userSpaceOnUse">
<stop stop-color="#A18AE0"/>
<stop offset="1" stop-color="#815DE5"/>
</linearGradient>
<linearGradient id="paint13_linear_354_6160" x1="55.1425" y1="33.9462" x2="31.7769" y2="46.7312" gradientUnits="userSpaceOnUse">
<stop stop-color="#3A148E" stop-opacity="0.46"/>
<stop offset="0.259456" stop-color="#5734A4" stop-opacity="0.288044"/>
<stop offset="1" stop-color="#3A148E" stop-opacity="0"/>
</linearGradient>
<linearGradient id="paint14_linear_354_6160" x1="42.0269" y1="51.8012" x2="53.8199" y2="37.0323" gradientUnits="userSpaceOnUse">
<stop stop-color="#9D6CED" stop-opacity="0.72"/>
<stop offset="1" stop-color="#9D6CED" stop-opacity="0"/>
</linearGradient>
<linearGradient id="paint15_linear_354_6160" x1="34.0914" y1="35.1585" x2="32.7688" y2="56.4301" gradientUnits="userSpaceOnUse">
<stop stop-color="#CDCDCD" stop-opacity="0.11"/>
<stop offset="1" stop-color="#BBB6B6" stop-opacity="0.24"/>
</linearGradient>
<linearGradient id="paint16_linear_354_6160" x1="67.8172" y1="26.7824" x2="70.2419" y2="34.0566" gradientUnits="userSpaceOnUse">
<stop stop-color="#815DE5" stop-opacity="0"/>
<stop offset="1" stop-color="#815DE5"/>
</linearGradient>
<linearGradient id="paint17_linear_354_6160" x1="68.376" y1="55.4568" x2="70.6568" y2="62.3344" gradientUnits="userSpaceOnUse">
<stop stop-color="#815DE5" stop-opacity="0"/>
<stop offset="1" stop-color="#815DE5"/>
</linearGradient>
<linearGradient id="paint18_linear_354_6160" x1="55.0818" y1="12.3441" x2="55.0818" y2="28.3253" gradientUnits="userSpaceOnUse">
<stop stop-color="#D8A576"/>
<stop offset="1" stop-color="#DAB490"/>
</linearGradient>
<linearGradient id="paint19_linear_354_6160" x1="55.0984" y1="13.1904" x2="55.0984" y2="28.2151" gradientUnits="userSpaceOnUse">
<stop stop-color="#C78242"/>
<stop offset="1" stop-color="#AB815A"/>
</linearGradient>
<linearGradient id="paint20_linear_354_6160" x1="54.9666" y1="13.6427" x2="54.9666" y2="27.9947" gradientUnits="userSpaceOnUse">
<stop stop-color="#D49A63"/>
<stop offset="1" stop-color="#BC9673"/>
</linearGradient>
<linearGradient id="paint21_linear_354_6160" x1="58.6103" y1="12.0672" x2="58.6103" y2="28.3253" gradientUnits="userSpaceOnUse">
<stop stop-color="#C78242"/>
<stop offset="1" stop-color="#AB815A"/>
</linearGradient>
<linearGradient id="paint22_linear_354_6160" x1="63.404" y1="23.1453" x2="63.404" y2="26.5619" gradientUnits="userSpaceOnUse">
<stop stop-color="#AB601A" stop-opacity="0.55"/>
<stop offset="1" stop-color="#D6B495"/>
</linearGradient>
<linearGradient id="paint23_linear_354_6160" x1="64.2903" y1="25.4597" x2="63.294" y2="28.3253" gradientUnits="userSpaceOnUse">
<stop stop-color="#C09871"/>
<stop offset="1" stop-color="#979797" stop-opacity="0.43"/>
</linearGradient>
<linearGradient id="paint24_linear_354_6160" x1="49.7419" y1="45.5189" x2="46.3253" y2="51.1399" gradientUnits="userSpaceOnUse">
<stop stop-color="#D9D9D9"/>
<stop offset="1" stop-color="#D9D9D9" stop-opacity="0"/>
</linearGradient>
<linearGradient id="paint25_linear_354_6160" x1="51.9462" y1="47.3925" x2="45.8844" y2="47.2823" gradientUnits="userSpaceOnUse">
<stop stop-color="#452877"/>
<stop offset="1" stop-color="#452877" stop-opacity="0"/>
</linearGradient>
<linearGradient id="paint26_linear_354_6160" x1="50.293" y1="48.0537" x2="48.0887" y2="47.9435" gradientUnits="userSpaceOnUse">
<stop stop-color="#885DCD"/>
<stop offset="1" stop-color="#885DCD" stop-opacity="0"/>
</linearGradient>
<linearGradient id="paint27_linear_354_6160" x1="46.4355" y1="48.0538" x2="47.6478" y2="49.707" gradientUnits="userSpaceOnUse">
<stop stop-color="#B383FC" stop-opacity="0.77"/>
<stop offset="1" stop-color="#A173E6" stop-opacity="0.63"/>
</linearGradient>
<linearGradient id="paint28_linear_354_6160" x1="48.75" y1="46.5108" x2="46.1048" y2="48.7151" gradientUnits="userSpaceOnUse">
<stop stop-color="#7F55C2"/>
<stop offset="1" stop-opacity="0"/>
</linearGradient>
<linearGradient id="paint29_linear_354_6160" x1="50.6007" y1="43.6453" x2="48.8602" y2="51.4705" gradientUnits="userSpaceOnUse">
<stop stop-color="#5A359B"/>
<stop offset="1" stop-color="#5A359B" stop-opacity="0"/>
</linearGradient>
<linearGradient id="paint30_linear_354_6160" x1="66.8253" y1="28.7662" x2="66.4455" y2="29.9779" gradientUnits="userSpaceOnUse">
<stop stop-color="#5F5E60" stop-opacity="0"/>
<stop offset="1" stop-color="#838285"/>
</linearGradient>
<linearGradient id="paint31_linear_354_6160" x1="54.5336" y1="12.6162" x2="54.922" y2="32.6237" gradientUnits="userSpaceOnUse">
<stop stop-color="#B1B1B1"/>
<stop offset="1" stop-color="#939393" stop-opacity="0"/>
</linearGradient>
<linearGradient id="paint32_linear_354_6160" x1="90.3011" y1="54.2258" x2="90.3011" y2="64.1452" gradientUnits="userSpaceOnUse">
<stop stop-color="#815DE5"/>
<stop offset="1" stop-color="#815DE5" stop-opacity="0"/>
</linearGradient>
<linearGradient id="paint33_linear_354_6160" x1="90.9999" y1="55.9993" x2="90.9999" y2="63.9993" gradientUnits="userSpaceOnUse">
<stop stop-color="#815DE5"/>
<stop offset="1" stop-color="#815DE5" stop-opacity="0"/>
</linearGradient>
<linearGradient id="paint34_linear_354_6160" x1="86.3333" y1="35.9302" x2="86.3333" y2="49.156" gradientUnits="userSpaceOnUse">
<stop stop-color="#815DE5"/>
<stop offset="1" stop-color="#815DE5" stop-opacity="0"/>
</linearGradient>
<linearGradient id="paint35_linear_354_6160" x1="86.4999" y1="37.0002" x2="86.4999" y2="48.0002" gradientUnits="userSpaceOnUse">
<stop stop-color="#815DE5"/>
<stop offset="1" stop-color="#815DE5" stop-opacity="0"/>
</linearGradient>
<linearGradient id="paint36_linear_354_6160" x1="45.7191" y1="12.0845" x2="45.7191" y2="19.2485" gradientUnits="userSpaceOnUse">
<stop stop-color="#815DE5"/>
<stop offset="1" stop-color="#815DE5" stop-opacity="0"/>
</linearGradient>
</defs>
</svg>
