<svg width="25" height="24" viewBox="0 0 25 24" fill="none" xmlns="http://www.w3.org/2000/svg">
<path d="M11.1372 3.81152H6.74039C5.72196 3.81152 4.7453 4.21615 4.02516 4.93629C3.30502 5.65643 2.90039 6.63309 2.90039 7.65152V17.2516C2.90039 18.2699 3.30502 19.2466 4.02516 19.9667C4.7453 20.6869 5.72196 21.0916 6.74039 21.0916H18.2604C19.2789 21.0916 20.2556 20.6869 20.9757 19.9667C21.6958 19.2466 22.1004 18.2699 22.1004 17.2516V13.3443" stroke="#9C9B9D" stroke-width="1.5" stroke-linecap="round" stroke-linejoin="round"/>
<path d="M2.90039 9.57129H6.13565C6.89947 9.57129 7.63196 9.87468 8.17207 10.4148C8.71217 10.9549 9.01565 11.6874 9.01565 12.4513C9.01565 13.2151 8.71217 13.9477 8.17207 14.4878C7.63196 15.0279 6.89947 15.3313 6.13565 15.3313H2.90039" stroke="#9C9B9D" stroke-width="1.5" stroke-linecap="round" stroke-linejoin="round"/>
<path d="M19.2285 7.43897L20.8328 5.83471L19.2285 4.23047" stroke="#9C9B9D" stroke-width="1.5" stroke-linecap="round" stroke-linejoin="round"/>
<path d="M13.0703 5.83496H20.8328" stroke="#9C9B9D" stroke-width="1.5" stroke-linecap="round" stroke-linejoin="round"/>
<path d="M14.6745 8.77539L13.0703 10.3797L14.6745 11.9839" stroke="#9C9B9D" stroke-width="1.5" stroke-linecap="round" stroke-linejoin="round"/>
<path d="M20.8328 10.3799H13.0703" stroke="#9C9B9D" stroke-width="1.5" stroke-linecap="round" stroke-linejoin="round"/>
</svg>
